<?xml version="1.0" standalone="no"?>
<!DOCTYPE svg PUBLIC "-//W3C//DTD SVG 20010904//EN"
 "http://www.w3.org/TR/2001/REC-SVG-20010904/DTD/svg10.dtd">
<svg version="1.0" xmlns="http://www.w3.org/2000/svg"
 width="700.000000pt" height="700.000000pt" viewBox="0 0 700.000000 700.000000"
 preserveAspectRatio="xMidYMid meet">
<metadata>
Created by potrace 1.14, written by Peter Selinger 2001-2017
</metadata>
<g transform="translate(0.000000,700.000000) scale(0.100000,-0.100000)"
fill="#000000" stroke="none">
<path d="M3289 6856 c-2 -2 -33 -6 -69 -10 -109 -10 -162 -16 -225 -27 -100
-17 -348 -69 -375 -78 -21 -8 -52 -17 -95 -26 -5 -2 -59 -20 -120 -40 -360
-122 -739 -335 -1039 -583 -116 -96 -405 -385 -478 -478 -120 -151 -273 -385
-355 -539 -108 -206 -216 -476 -268 -670 -9 -33 -18 -67 -20 -75 -14 -52 -57
-265 -66 -326 -5 -40 -12 -83 -14 -96 -17 -85 -24 -469 -12 -668 7 -107 9
-134 22 -215 3 -16 7 -48 11 -70 12 -86 64 -309 99 -426 93 -314 249 -640 439
-919 28 -41 53 -77 56 -80 3 -3 18 -23 35 -45 107 -146 324 -379 485 -522 103
-91 433 -333 455 -333 2 0 39 -21 82 -47 309 -184 777 -348 1148 -402 39 -6
86 -13 105 -16 122 -18 467 -24 670 -12 138 9 202 17 345 42 141 26 413 97
495 129 19 8 85 33 145 56 480 185 967 537 1320 955 180 213 313 415 440 667
90 181 179 413 239 628 24 87 75 333 82 396 3 32 8 67 10 78 17 83 23 475 10
661 -11 165 -17 212 -52 385 -95 477 -300 947 -574 1320 -321 436 -720 778
-1185 1016 -415 212 -827 328 -1285 360 -79 6 -457 14 -461 10z m308 -920
c125 -10 284 -116 369 -243 21 -32 50 -94 65 -138 24 -70 27 -93 24 -180 -4
-139 -24 -215 -95 -358 -78 -156 -183 -284 -331 -403 -38 -31 -69 -57 -69 -59
0 -1 156 -3 348 -3 377 -1 474 -6 570 -27 105 -25 204 -84 291 -175 72 -76
102 -139 197 -412 15 -43 29 -78 33 -79 3 0 50 -3 105 -4 171 -7 267 -55 325
-165 61 -115 5 -298 -112 -361 l-47 -25 54 -72 c30 -39 70 -105 90 -145 l35
-74 2 -374 c1 -248 -2 -383 -9 -400 -12 -29 -76 -100 -106 -116 -17 -9 -18
-28 -18 -289 l0 -278 -39 -40 -39 -41 -258 2 c-280 1 -303 5 -337 57 -16 24
-22 111 -24 318 l-1 78 -72 -5 c-366 -23 -607 -30 -1063 -30 -247 1 -517 4
-600 8 -82 4 -202 10 -265 12 -63 3 -143 8 -177 11 l-63 5 -1 -63 c-1 -137 -8
-279 -14 -308 -7 -30 -56 -76 -85 -79 -8 0 -127 -2 -264 -3 l-250 -3 -42 38
-42 38 0 276 0 276 -68 68 -69 67 3 389 3 388 40 80 c22 45 62 108 89 142 l50
62 -58 38 c-47 31 -63 50 -92 106 -30 61 -34 77 -33 137 2 78 22 124 78 182
63 66 135 89 284 92 l96 3 19 54 c81 232 112 310 141 354 87 133 218 228 357
259 100 23 190 27 566 28 193 0 352 2 352 3 0 2 -31 27 -68 58 -314 253 -482
619 -417 902 49 209 250 397 453 423 57 8 75 8 189 -2z"/>
<path d="M3405 5650 c-66 -26 -117 -70 -145 -122 -28 -53 -38 -168 -20 -232
15 -55 81 -125 146 -155 129 -61 297 -2 360 126 28 58 31 176 6 234 -56 129
-220 200 -347 149z m173 -151 c31 -20 63 -88 56 -123 -7 -41 -30 -82 -56 -100
-104 -73 -245 32 -207 154 28 85 127 118 207 69z"/>
<path d="M3117 4414 c-1 -1 -117 -4 -257 -7 -140 -3 -268 -8 -283 -11 -138
-31 -274 -139 -318 -255 -43 -113 -229 -666 -229 -682 0 -12 11 -18 43 -21 76
-8 2882 -3 2894 5 8 5 -19 98 -97 325 -149 441 -144 428 -210 493 -91 91 -199
137 -340 146 -71 4 -1199 11 -1203 7z"/>
<path d="M2019 2995 c-95 -34 -156 -98 -186 -195 -37 -116 23 -252 139 -315
68 -38 167 -41 239 -9 170 78 217 296 95 441 -60 71 -200 109 -287 78z"/>
<path d="M4823 2995 c-63 -19 -108 -51 -146 -103 -102 -141 -49 -335 112 -414
70 -35 172 -31 243 9 92 52 148 147 148 252 0 77 -76 199 -145 233 -66 33
-148 42 -212 23z"/>
<path d="M2730 2862 c-48 -5 -60 -18 -60 -64 0 -30 5 -40 20 -46 31 -12 212
-15 790 -15 623 0 817 4 837 18 20 15 19 73 -1 93 -15 16 -77 17 -784 18 -422
0 -783 -2 -802 -4z"/>
<path d="M3097 2584 c-1 -1 -62 -4 -136 -7 -114 -4 -137 -8 -148 -23 -17 -23
-16 -29 2 -64 11 -21 23 -30 43 -31 15 -1 38 -3 52 -5 40 -5 1183 -5 1208 0
47 10 59 17 70 41 14 31 0 75 -25 76 -10 0 -43 3 -73 5 -50 4 -989 11 -993 8z"/>
</g>
</svg>
