<?xml version="1.0" standalone="no"?>
<!DOCTYPE svg PUBLIC "-//W3C//DTD SVG 20010904//EN"
 "http://www.w3.org/TR/2001/REC-SVG-20010904/DTD/svg10.dtd">
<svg version="1.0" xmlns="http://www.w3.org/2000/svg"
 width="200.000000pt" height="200.000000pt" viewBox="0 0 200.000000 200.000000"
 preserveAspectRatio="xMidYMid meet">

<g transform="translate(0.000000,200.000000) scale(0.100000,-0.100000)"
fill="#000000" stroke="none">
<path d="M283 1185 c-19 -8 -42 -32 -60 -62 -24 -41 -28 -59 -28 -123 0 -64 4
-82 27 -121 35 -60 75 -79 166 -79 86 0 126 23 161 94 48 97 21 231 -58 283
-27 19 -48 23 -105 23 -39 -1 -85 -7 -103 -15z m205 -51 c35 -24 52 -68 52
-134 0 -66 -17 -110 -52 -134 -50 -35 -108 -11 -139 58 -24 52 -24 100 0 152
31 69 89 93 139 58z"/>
<path d="M376 1108 c-55 -84 -22 -246 47 -236 51 7 76 145 39 218 -22 44 -63
53 -86 18z"/>
<path d="M870 1105 c0 -50 4 -85 10 -85 6 0 10 35 10 85 0 50 -4 85 -10 85 -6
0 -10 -35 -10 -85z"/>
<path d="M1502 1178 c6 -18 28 -21 28 -4 0 9 -7 16 -16 16 -9 0 -14 -5 -12
-12z"/>
<path d="M643 1164 c3 -11 8 -39 12 -64 8 -58 15 -80 23 -80 4 0 20 21 35 47
l29 46 30 -46 c17 -26 34 -45 38 -42 11 7 34 145 25 153 -9 10 -25 -19 -25
-48 -1 -48 -16 -54 -38 -16 -12 20 -25 36 -29 36 -4 0 -19 -17 -32 -38 l-25
-37 -10 49 c-6 27 -17 51 -25 54 -9 3 -11 -2 -8 -14z"/>
<path d="M910 1125 c0 -10 10 -15 30 -15 29 0 30 -2 30 -45 0 -25 5 -45 10
-45 6 0 10 24 10 54 0 57 -7 66 -56 66 -15 0 -24 -6 -24 -15z"/>
<path d="M1038 1129 c-27 -15 -25 -85 3 -99 24 -13 61 -10 66 7 3 7 -9 13 -29
15 -28 2 -34 7 -36 31 -3 26 -1 27 37 27 23 0 41 -4 41 -10 0 -5 -13 -10 -30
-10 -20 0 -30 -5 -30 -15 0 -16 46 -21 66 -7 19 13 23 41 8 57 -17 17 -70 19
-96 4z"/>
<path d="M1182 1128 c-14 -14 -16 -108 -2 -108 6 0 10 20 10 44 0 44 0 45 37
48 20 2 38 9 41 16 5 16 -70 16 -86 0z"/>
<path d="M1303 1133 c-8 -3 -13 -23 -13 -48 0 -34 5 -47 19 -55 29 -15 61 -12
61 5 0 10 -10 15 -30 15 -27 0 -30 3 -30 30 0 28 2 30 40 30 22 0 40 -4 40
-10 0 -5 -16 -10 -36 -10 -39 0 -44 -23 -6 -28 47 -7 80 36 50 66 -12 12 -71
15 -95 5z"/>
<path d="M1502 1083 c4 -81 28 -85 28 -4 0 48 -3 61 -15 61 -13 0 -15 -11 -13
-57z"/>
<path d="M1573 1133 c-7 -2 -13 -15 -13 -29 0 -20 6 -25 40 -30 22 -4 40 -10
40 -15 0 -5 -18 -9 -40 -9 -29 0 -40 -4 -40 -15 0 -18 60 -21 91 -5 42 23 16
69 -40 71 l-36 2 39 6 c53 8 60 31 9 30 -21 0 -44 -3 -50 -6z"/>
<path d="M790 910 c0 -47 4 -80 10 -80 6 0 10 33 10 80 0 47 -4 80 -10 80 -6
0 -10 -33 -10 -80z"/>
<path d="M690 960 c0 -13 -7 -20 -20 -20 -11 0 -20 -4 -20 -10 0 -5 9 -10 20
-10 17 0 20 -7 20 -45 0 -33 4 -45 15 -45 11 0 15 12 15 45 0 41 2 45 25 45
14 0 25 5 25 10 0 6 -11 10 -25 10 -18 0 -25 5 -25 20 0 11 -7 20 -15 20 -8 0
-15 -9 -15 -20z"/>
<path d="M830 931 c0 -5 12 -11 28 -13 24 -3 27 -7 30 -45 2 -24 8 -43 13 -43
6 0 9 22 7 53 l-3 52 -37 3 c-21 2 -38 -1 -38 -7z"/>
<path d="M946 924 c-10 -26 -7 -69 6 -82 14 -14 78 -16 78 -3 0 6 -15 11 -32
13 -29 3 -33 6 -33 33 0 27 3 30 38 33 28 2 37 0 37 -12 0 -11 -9 -16 -30 -16
-16 0 -30 -4 -30 -10 0 -5 16 -10 35 -10 39 0 59 24 44 52 -13 24 -104 26
-113 2z"/>
<path d="M1164 926 c-3 -8 -4 -31 -2 -52 l3 -39 53 -3 c30 -2 52 1 52 7 0 5
-19 11 -42 13 -40 3 -43 5 -43 33 0 28 3 30 43 33 59 4 53 22 -8 22 -34 0 -52
-5 -56 -14z"/>
<path d="M1320 931 c0 -5 15 -11 33 -13 28 -3 32 -6 32 -33 0 -27 -3 -30 -34
-30 -19 0 -36 6 -38 13 -3 8 6 12 26 12 17 0 31 5 31 11 0 6 -16 9 -37 7 -35
-3 -38 -6 -38 -33 0 -30 1 -30 55 -30 l55 0 0 50 0 50 -42 3 c-24 2 -43 -1
-43 -7z"/>
<path d="M1447 933 c-11 -10 -8 -103 2 -103 6 0 11 19 13 43 3 41 4 42 41 45
20 2 37 7 37 13 0 10 -83 13 -93 2z"/>
</g>
</svg>
